# AST/ASF file generated using VICON BodyLanguage
# -----------------------------------------------
:version 1.10
:name VICON
:units
  mass 1.0
  length 0.45
  angle deg
:documentation
   .ast/.asf automatically generated from VICON data using
   VICON BodyBuilder and BodyLanguage model FoxedUp or BRILLIANT.MOD
:root
   order TX TY TZ RX RY RZ
   axis XYZ
   position 0 0 0  
   orientation 0 0 0 
:bonedata
  begin
     id 1 
     name lhipjoint
     direction 0.558404 -0.748506 0.357664 
     length 2.4234 
     axis 0 0 0  XYZ
  end
  begin
     id 2 
     name lfemur
     direction 0.34202 -0.939693 0  
     length 7.14567  
     axis 0 0 20  XYZ
    dof rx ry rz
    limits (-160.0 20.0)
           (-70.0 70.0)
           (-60.0 70.0)
  end
  begin
     id 3 
     name ltibia
     direction 0.34202 -0.939693 0   
     length 8.13956   
     axis 0 0 20   XYZ
    dof rx
    limits (-10.0 170.0)
  end
  begin
     id 4 
     name lfoot
     direction 0.0791314 -0.217412 0.972867   
     length 2.00134   
     axis -90 7.62852e-016 20   XYZ
    dof rx rz
    limits (-45.0 90.0)
           (-70.0 20.0)
  end
  begin
     id 5 
     name ltoes
     direction 1.53547e-011 -4.21922e-011 1   
     length 1.00735   
     axis -90 7.62852e-016 20   XYZ
    dof rx
    limits (-90.0 20.0)
  end
  begin
     id 6 
     name rhipjoint
     direction -0.496392 -0.78327 0.374276   
     length 2.31584  
     axis 0 0 0  XYZ 
  end
  begin
     id 7 
     name rfemur
     direction -0.34202 -0.939693 0   
     length 7.47417   
     axis 0 0 -20   XYZ
    dof rx ry rz
    limits (-160.0 20.0)
           (-70.0 70.0)
           (-70.0 60.0)
  end
  begin
     id 8 
     name rtibia
     direction -0.34202 -0.939693 0   
     length 7.69071   
     axis 0 0 -20   XYZ
    dof rx
    limits (-10.0 170.0)
 end
 begin
     id 9 
     name rfoot
     direction -0.103069 -0.28318 0.953512   
     length 2.16135  
     axis -90 -7.62852e-016 -20   XYZ
    dof rx rz
    limits (-45.0 90.0)
           (-20.0 70.0)
  end
  begin
     id 10 
     name rtoes
     direction -1.53581e-011 -4.21904e-011 1   
     length 1.07867   
     axis -90 -7.62852e-016 -20   XYZ
    dof rx
    limits (-90.0 20.0)
  end
  begin
     id 11 
     name lowerback
     direction -0.0258961 0.994776 -0.0987407   
     length 2.19412   
     axis 0 0 0   XYZ
    dof rx ry rz
    limits (-20.0 45.0)
           (-30.0 30.0)
           (-30.0 30.0)
  end
  begin
     id 12 
     name upperback
     direction 0.0402454 0.999185 0.00320666   
     length 2.18445   
     axis 0 0 0   XYZ
    dof rx ry rz
    limits (-20.0 45.0)
           (-30.0 30.0)
           (-30.0 30.0)
  end
  begin
     id 13 
     name thorax
     direction 0.0519376 0.997415 0.0496558   
     length 2.21487   
     axis 0 0 0   XYZ
    dof rx ry rz
    limits (-20.0 45.0)
           (-30.0 30.0)
           (-30.0 30.0)
  end
  begin
     id 14 
     name lowerneck
     direction -0.0921276 0.983211 0.157506   
     length 1.61201   
     axis 0 0 0   XYZ
    dof rx ry rz
    limits (-20.0 45.0)
           (-30.0 30.0)
           (-30.0 30.0)
  end
  begin
     id 15 
     name upperneck
     direction 0.0820814 0.98162 -0.172292   
     length 1.65275   
     axis 0 0 0   XYZ
    dof rx ry rz
    limits (-20.0 45.0)
           (-30.0 30.0)
           (-30.0 30.0)
  end
  begin
     id 16
     name head
     direction 0.0336554 0.996413 -0.0776455  
     length 1.66415  
     axis 0 0 0   XYZ
    dof rx ry rz
    limits (-20.0 45.0)
           (-30.0 30.0)
           (-30.0 30.0)
  end
  begin
     id 17 
     name lclavicle
     direction 0.94696 0.284418 -0.149576  
     length 3.41447  
     axis 0 0 0   XYZ
    dof ry rz
    limits (-20.0 10.0)
           (0.0 20.0)
  end
  begin
     id 18 
     name lhumerus
     direction 1 -0.000130264 -9.81312e-005   
     length 5.19964   
     axis 180 -30 -90   XYZ
    dof rx ry rz
    limits (-60.0 90.0)
           (-90.0 90.0)
           (-90.0 90.0)
  end
  begin
     id 19
     name lradius
     direction 1 -4.48961e-011 1.43854e-026   
     length 3.32189   
     axis 180 -30 -90   XYZ
    dof rx
    limits (-10.0 170.0)
  end
  begin
     id 20
     name lwrist
     direction 1 -4.48958e-011 3.1502e-026   
     length 1.66095   
     axis -1.97692e-014 90 90   XYZ
    dof ry
    limits (-180.0 0.0)
 end
  begin
     id 21 
     name lhand
     direction 1 -4.48927e-011 6.3004e-026   
     length 0.645616   
     axis -4.02019e-014 90 90   XYZ
    dof rx rz
    limits (-90.0 90.0)
           (-45.0 45.0)
  end
  begin
     id 22 
     name lfingers
     direction 1 -4.4904e-011 1.26008e-025   
     length 0.520512   
     axis -8.04039e-014 90 90   XYZ
    dof rx
    limits (0.0 90.0)
  end
  begin
     id 23
     name lthumb
     direction 0.707107 -6.34947e-011 0.707107   
     length 0.747354   
     axis -90 45 2.85299e-015   XYZ
    dof rx rz
    limits (-45.0 45.0)
           (-45.0 45.0)
  end
  begin
     id 24 
     name rclavicle
     direction -0.909391 0.383475 -0.161107   
     length 3.25176  
     axis 0 0 0   XYZ 
    dof ry rz
    limits (-10.0 20.0)
           (-20.0 0.0)
  end
  begin
     id 25 
     name rhumerus
     direction -1 -4.48965e-011 -1.81384e-027  
     length 5.6595   
     axis 180 30 90   XYZ
    dof rx ry rz
    limits (-90.0 60.0)
           (-90.0 90.0)
           (-90.0 90.0)
  end
  begin
     id 26 
     name rradius
     direction -1 -4.48996e-011 -8.09397e-027   
     length 3.37604   
     axis 180 30 90   XYZ
    dof rx
    limits (-10.0 170.0)
  end
  begin
     id 27 
     name rwrist
     direction -1 -4.48927e-011 -1.56669e-026   
     length 1.68802   
     axis 1.21142e-014 -90 -90   XYZ
    dof ry
    limits (-180.0 0.0)
  end
  begin
     id 28
     name rhand
     direction -1 -4.48912e-011 -3.13339e-026   
     length 0.824702   
     axis 1.99937e-014 -90 -90   XYZ
    dof rx rz
    limits (-90.0 90.0)
           (-45.0 45.0)
  end
  begin
     id 29
     name rfingers
     direction -1 -4.49011e-011 -6.26677e-026   
     length 0.664896   
     axis 3.99874e-014 -90 -90   XYZ
    dof rx
    limits (0.0 90.0)
  end
  begin
     id 30
     name rthumb
     direction -0.707107 -6.34931e-011 0.707107   
     length 0.954662   
     axis -90 -45 -2.85299e-015   XYZ
    dof rx rz
    limits (-45.0 45.0)
           (-45.0 45.0)
  end
:hierarchy
  begin
    root lhipjoint rhipjoint lowerback
    lhipjoint lfemur
    lfemur ltibia
    ltibia lfoot
    lfoot ltoes
    rhipjoint rfemur
    rfemur rtibia
    rtibia rfoot
    rfoot rtoes
    lowerback upperback
    upperback thorax
    thorax lowerneck lclavicle rclavicle
    lowerneck upperneck
    upperneck head
    lclavicle lhumerus
    lhumerus lradius
    lradius lwrist
    lwrist lhand lthumb
    lhand lfingers
    rclavicle rhumerus
    rhumerus rradius
    rradius rwrist
    rwrist rhand rthumb
    rhand rfingers
  end

#!OML:ASF F:\VICON\USERDATA\INSTALL\rory3\rory3.ASF
:FULLY-SPECIFIED
:DEGREES
343
root 5.98078 15.8574 10.4342 1.32126 11.3637 -0.498145
lowerback 2.066 -13.8692 -7.6648
upperback -3.15333 -18.8544 10.0432
thorax 1.41839 -9.66277 14.2233
lowerneck -10.3715 -1.52778 -8.80633
upperneck 25.5018 -1.95227 5.55665
head 9.92395 -1.19111 3.22615
rclavicle 4.9895e-014 -1.27222e-014
rhumerus -67.6282 -25.0518 -39.7782
rradius 37.4049
rwrist -26.8272
rhand -20.0858 17.2977
rfingers 7.12502
rthumb 6.25696 -12.5899
lclavicle 4.9895e-014 -1.27222e-014
lhumerus 99.4181 -72.7985 34.7115
lradius 51.7438
lwrist 3.60251
lhand -2.97854 25.7166
lfingers 7.12502
lthumb 22.7346 54.3972
rfemur -47.0022 3.37379 27.7641
rtibia 57.5524
rfoot -7.21875 -3.63516
rtoes 31.3864
lfemur -3.94227 15.6902 -38.8139
ltibia 48.7872
lfoot 26.261 -21.717
ltoes 15.8528
344
root 6.07448 15.8519 10.5519 1.18048 11.5618 -1.39123
lowerback 3.4915 -13.2946 -7.12484
upperback -3.94344 -18.0679 10.6148
thorax -0.413084 -9.12797 15.2654
lowerneck -9.98725 -1.83421 -9.77131
upperneck 25.2033 -2.23659 5.6736
head 9.78516 -1.39858 3.39464
rclavicle 6.44062e-014 3.81667e-014
rhumerus -68.9929 -24.311 -38.5449
rradius 37.609
rwrist -27.9186
rhand -21.0567 16.8529
rfingers 7.12502
rthumb 5.31963 -13.0603
lclavicle 6.44062e-014 3.81667e-014
lhumerus 103.285 -72.3269 32.3835
lradius 53.8501
lwrist 3.79262
lhand -3.17091 25.5358
lfingers 7.12502
lthumb 22.5499 54.2389
rfemur -47.0419 5.34661 27.9647
rtibia 58.3764
rfoot -7.65869 -6.25346
rtoes 29.789
lfemur -4.83589 16.5966 -37.0681
ltibia 50.6049
lfoot 24.1106 -22.7951
ltoes 13.7235
345
root 6.13285 15.8543 10.6559 0.542238 11.218 -3.17477
lowerback 4.9869 -12.5051 -6.09099
upperback -4.07551 -16.9381 11.1438
thorax -1.84764 -8.46236 15.9377
lowerneck -10.2821 -2.10057 -10.0582
upperneck 25.0244 -2.54273 5.82085
head 9.81275 -1.53991 3.45752
rclavicle 4.65653e-014 9.54166e-015
rhumerus -70.125 -24.5785 -37.6321
rradius 37.3904
rwrist -28.5815
rhand -22.8446 16.534
rfingers 7.12502
rthumb 3.59319 -13.4154
lclavicle 4.65653e-014 9.54166e-015
lhumerus 110.596 -70.2562 25.1525
lradius 57.6199
lwrist 5.42959
lhand -4.46054 27.0045
lfingers 7.12502
lthumb 21.3117 55.8527
rfemur -46.5419 7.61322 29.3455
rtibia 59.2426
rfoot -8.53769 -7.94913
rtoes 28.4705
lfemur -5.45587 17.9154 -34.0853
ltibia 52.3324
lfoot 22.246 -22.7287
ltoes 14.1669
346
root 6.28337 15.8578 10.8194 -0.162854 12.4726 -2.18444
lowerback 5.64988 -12.3291 -6.45304
upperback -3.79299 -16.7458 10.4733
thorax -2.07919 -8.33201 15.5289
lowerneck -10.7886 -2.42611 -9.81773
upperneck 24.3383 -2.96985 5.86897
head 9.70078 -1.68533 3.36916
rclavicle -2.48481e-016 -6.36111e-015
rhumerus -70.5877 -25.744 -37.2174
rradius 36.4584
rwrist -28.6062
rhand -24.6127 16.5799
rfingers 7.12502
rthumb 1.8856 -13.3915
lclavicle -2.48481e-016 -6.36111e-015
lhumerus 111.448 -70.3863 25.7001
lradius 58.496
lwrist 3.61204
lhand -4.6275 26.2299
lfingers 7.12502
lthumb 21.1513 55.0961
rfemur -45.2071 5.90718 27.9112
rtibia 60.2446
rfoot -10.2228 -7.53769
rtoes 27.5203
lfemur -3.90856 17.8433 -33.9449
ltibia 53.6059
lfoot 19.1363 -22.3657
ltoes 13.537
347
root 6.38051 15.8459 10.9603 -0.478482 13.1747 -0.438381
lowerback 6.23357 -11.8734 -8.31365
upperback -3.47779 -16.3471 9.75631
thorax -1.90002 -8.11434 15.8445
lowerneck -10.8194 -2.84793 -10.0204
upperneck 23.3299 -3.55227 6.22287
head 9.41326 -1.91549 3.44205
rclavicle 1.12115e-013 -8.26944e-014
rhumerus -70.5262 -26.7409 -37.2059
rradius 35.0761
rwrist -28.93
rhand -24.7228 17.2163
rfingers 7.12502
rthumb 1.77926 -12.756
lclavicle 1.12115e-013 -8.26944e-014
lhumerus 113.036 -70.1461 25.1154
lradius 59.9309
lwrist 2.30555
lhand -4.42419 24.9485
lfingers 7.12502
lthumb 21.3466 53.7927
rfemur -44.3142 4.74984 25.8917
rtibia 61.1261
rfoot -11.314 -7.31634
rtoes 26.9251
lfemur -3.25407 17.8782 -34.7467
ltibia 55.0553
lfoot 15.5148 -21.9834
ltoes 11.1891
348
root 6.44211 15.8529 11.0855 -0.591596 13.3464 0.0792018
lowerback 6.65988 -11.3178 -9.40249
upperback -3.34815 -15.7358 9.56466
thorax -1.96701 -7.78286 16.3674
lowerneck -10.7858 -3.24769 -10.4903
upperneck 22.6829 -4.09212 6.67075
head 9.2513 -2.14945 3.60509
rclavicle -3.26007e-014 -6.36111e-015
rhumerus -70.2859 -27.759 -36.6276
rradius 33.0003
rwrist -28.3957
rhand -24.0018 17.8318
rfingers 7.12502
rthumb 2.47558 -12.1336
lclavicle -3.26007e-014 -6.36111e-015
lhumerus 114.193 -69.7427 24.4269
lradius 62.2034
lwrist 1.79714
lhand -4.34542 23.7693
lfingers 7.12502
lthumb 21.4222 52.6049
rfemur -43.7941 4.64123 25.2991
rtibia 61.7513
rfoot -12.23 -7.69593
rtoes 27.0695
lfemur -3.63796 18.1028 -34.3089
ltibia 56.6232
lfoot 12.6648 -21.9576
ltoes 9.71791
349
root 6.50085 15.8762 11.1985 -0.599419 13.7156 0.0745263
lowerback 7.06401 -10.9185 -9.96129
upperback -3.41431 -15.2811 9.5806
thorax -2.27215 -7.50942 16.857
lowerneck -10.4357 -3.49679 -11.0569
upperneck 22.0621 -4.45764 7.20761
head 9.03185 -2.30944 3.8389
rclavicle 2.70347e-014 -2.8625e-014
rhumerus -69.6803 -28.7434 -36.0362
rradius 30.4514
rwrist -27.5249
rhand -24.3126 17.8009
rfingers 7.12502
rthumb 2.17541 -12.1678
lclavicle 2.70347e-014 -2.8625e-014
lhumerus 114.062 -69.6047 24.6545
lradius 64.8535
lwrist 1.60867
lhand -4.59241 22.9451
lfingers 7.12502
lthumb 21.185 51.8076
rfemur -43.3794 4.49263 25.196
rtibia 61.9818
rfoot -12.9575 -8.13221
rtoes 27.9616
lfemur -4.44315 17.9332 -33.3329
ltibia 58.5407
lfoot 11.101 -21.8623
ltoes 12.1139
350
root 6.58201 15.9295 11.3119 -0.443115 14.4063 -0.0911251
lowerback 6.89286 -10.6399 -10.0246
upperback -3.37293 -14.8972 9.5983
thorax -2.24616 -7.31515 16.8992
lowerneck -9.71061 -3.7853 -11.7839
upperneck 21.0971 -4.91202 7.91722
head 8.64972 -2.5121 4.14754
rclavicle -1.34677e-014 -8.90555e-014
rhumerus -68.8945 -30.1442 -35.4192
rradius 27.7883
rwrist -26.0552
rhand -24.6831 17.1224
rfingers 7.12502
rthumb 1.81761 -12.8496
lclavicle -1.34677e-014 -8.90555e-014
lhumerus 113.766 -69.6845 25.0021
lradius 67.4451
lwrist 1.32999
lhand -5.20334 22.4063
lfingers 7.12502
lthumb 20.598 51.3334
rfemur -42.9333 3.76922 25.1112
rtibia 61.8562
rfoot -13.6177 -8.09983
rtoes 28.5751
lfemur -5.87501 17.6171 -32.373
ltibia 60.4728
lfoot 9.20148 -22.278
ltoes 9.28219
351
root 6.67825 15.9841 11.4283 -0.212223 15.1382 -0.27121
lowerback 6.35388 -10.3813 -9.88097
upperback -3.2771 -14.493 9.6521
thorax -2.00394 -7.13709 16.7688
lowerneck -9.20769 -4.03436 -12.5693
upperneck 20.3823 -5.30698 8.7123
head 8.40147 -2.68478 4.5054
rclavicle 5.97596e-014 6.99722e-014
rhumerus -68.0908 -31.9127 -34.3996
rradius 25.2733
rwrist -24.0738
rhand -24.884 15.4164
rfingers 7.12502
rthumb 1.62358 -14.5572
lclavicle 5.97596e-014 6.99722e-014
lhumerus 113.208 -69.8193 25.5366
lradius 70.0524
lwrist 1.32507
lhand -6.38314 21.9583
lfingers 7.12502
lthumb 19.464 51.0041
rfemur -42.4857 2.72762 24.9864
rtibia 61.6333
rfoot -14.2799 -7.69964
rtoes 28.332
lfemur -7.15063 17.0527 -31.4959
ltibia 62.309
lfoot 6.37262 -21.6595
ltoes 2.61984
352
root 6.76746 16.0239 11.5384 -0.0216355 15.6108 -0.360147
lowerback 6.39332 -10.1519 -9.89842
upperback -3.39387 -14.1821 9.72505
thorax -2.23831 -6.94855 16.9227
lowerneck -9.40175 -4.01362 -13.0967
upperneck 20.4925 -5.3144 9.41943
head 8.50676 -2.65886 4.84207
rclavicle 9.54166e-015 -5.40694e-014
rhumerus -67.1146 -33.2596 -33.4769
rradius 22.9333
rwrist -21.494
rhand -24.6695 13.0503
rfingers 7.12502
rthumb 1.83076 -16.9216
lclavicle 9.54166e-015 -5.40694e-014
lhumerus 110.549 -70.1123 27.6466
lradius 72.6132
lwrist 1.63402
lhand -7.49749 20.9895
lfingers 7.12502
lthumb 18.3923 50.14
rfemur -42 1.8332 24.8656
rtibia 61.3613
rfoot -14.7356 -7.29062
rtoes 26.6434
lfemur -8.28681 16.5316 -30.7007
ltibia 64.0224
lfoot 3.86075 -20.7833
ltoes -2.6209
353
root 6.84403 16.047 11.6361 -0.0559377 15.88 -0.689954
lowerback 5.8678 -9.78998 -9.44152
upperback -3.13393 -13.6135 9.48442
thorax -2.02812 -6.68942 16.2667
lowerneck -8.87419 -4.17782 -13.4083
upperneck 20.0557 -5.68594 10.1605
head 8.33665 -2.79818 5.11027
rclavicle -1.48741e-013 -2.38542e-014
rhumerus -68.3302 -36.2931 -29.7257
rradius 20.1659
rwrist -14.1876
rhand -22.2375 11.9284
rfingers 7.12502
rthumb 4.17945 -18.0104
lclavicle -1.48741e-013 -2.38542e-014
lhumerus 109.321 -70.6577 28.0657
lradius 74.8699
lwrist 2.21109
lhand -7.98233 19.6757
lfingers 7.12502
lthumb 17.9258 48.8696
rfemur -41.3853 1.19317 25.1063
rtibia 61.0907
rfoot -15.0622 -7.1015
rtoes 23.9808
lfemur -9.11297 16.0687 -29.494
ltibia 65.7001
lfoot 2.42058 -19.8743
ltoes -2.00354
354
root 6.93608 16.1086 11.742 -0.288482 16.3524 -0.83063
lowerback 5.14111 -9.50387 -9.08181
upperback -2.52229 -13.1583 9.08538
thorax -1.29471 -6.5449 15.386
lowerneck -8.47822 -4.44762 -13.4952
upperneck 19.3578 -6.14041 10.6108
head 8.10616 -2.98271 5.22208
rclavicle -6.94255e-014 -5.88403e-014
rhumerus -70.302 -39.7507 -25.345
rradius 17.9924
rwrist -6.0168
rhand -19.0963 11.534
rfingers 7.12502
rthumb 7.21223 -18.3231
lclavicle -6.94255e-014 -5.88403e-014
lhumerus 109.024 -70.6548 27.2135
lradius 77.092
lwrist 3.25888
lhand -8.57223 18.8566
lfingers 7.12502
lthumb 17.3582 48.1015
rfemur -40.2736 0.320135 25.037
rtibia 60.6221
rfoot -15.5152 -6.83892
rtoes 22.6514
lfemur -10.1167 15.6888 -28.5342
ltibia 67.1179
lfoot 0.0113724 -18.979
ltoes -9.50605
